<svg width="13" height="13" viewBox="0 0 13 13" fill="none" xmlns="http://www.w3.org/2000/svg">
<path opacity="0.825991" d="M3.95281 0.953125C2.32214 0.953125 0.994141 2.28093 0.994141 3.91146V9.99446C0.994141 11.6251 2.32214 12.9531 3.95281 12.9531C4.33281 12.9531 6.61414 12.9531 6.99414 12.9531C9.36215 12.9531 12.9941 9.32113 12.9941 6.95313V3.91146C12.9941 2.28093 11.6661 0.953125 10.0355 0.953125C9.27548 0.953125 4.71281 0.953125 3.95281 0.953125ZM9.28615 7.6198L11.5128 7.62713C11.0148 9.0818 9.06615 10.9805 7.65948 11.4805L7.66081 9.24513C7.66081 8.35047 8.39148 7.6198 9.28615 7.6198Z" fill="#23262F"/>
</svg>
