<svg width="16" height="16" viewBox="0 0 16 16" fill="none" xmlns="http://www.w3.org/2000/svg">
<path d="M2.00944 1.33264C1.64144 1.33224 1.34344 1.63111 1.34277 1.99931C1.34211 2.36751 1.64144 2.66557 2.00944 2.66597C2.50811 2.66651 2.81877 2.89644 3.0721 3.31184C3.1921 3.50951 3.33877 3.99444 3.4681 4.66597C3.66277 5.68191 4.36344 9.20764 4.36344 9.20764C4.60078 10.3937 5.73811 11.3326 6.94678 11.3326H11.0508C12.2601 11.3326 13.3974 10.3937 13.6348 9.20764C13.6348 9.20764 14.6761 4.25404 14.6761 3.99931C14.6761 3.63111 14.3774 3.33264 14.0094 3.33264C13.8021 3.33264 4.68144 3.33837 4.53011 3.33264C4.49478 3.21057 4.39077 2.91131 4.23877 2.64517C3.77677 1.83671 3.02944 1.33378 2.00944 1.33264ZM6.34277 12.666C5.79077 12.666 5.34277 13.1137 5.34277 13.666C5.34277 14.2182 5.79077 14.666 6.34277 14.666C6.89477 14.666 7.34277 14.2182 7.34277 13.666C7.34277 13.1137 6.89477 12.666 6.34277 12.666ZM11.6761 12.666C11.1241 12.666 10.6761 13.1137 10.6761 13.666C10.6761 14.2182 11.1241 14.666 11.6761 14.666C12.2281 14.666 12.6761 14.2182 12.6761 13.666C12.6761 13.1137 12.2281 12.666 11.6761 12.666Z" fill="#23262F"/>
</svg>
