<svg width="16" height="16" viewBox="0 0 16 16" fill="none" xmlns="http://www.w3.org/2000/svg">
<path d="M8.00944 1.99878C4.34411 1.99878 1.34277 4.66611 1.34277 7.99878C1.34277 9.04678 1.63744 10.0654 2.19678 10.9574C2.49744 11.4361 2.52544 12.1181 2.0721 13.0401C1.8661 13.4588 2.14944 13.9548 2.61344 13.9988C3.51811 14.0848 4.34478 13.8708 5.38411 13.4361C6.21278 13.7588 7.08677 13.9988 8.00944 13.9988C11.6748 13.9988 14.6761 11.3314 14.6761 7.99878C14.6761 4.66611 11.6748 1.99878 8.00944 1.99878ZM5.34277 7.35278C5.71077 7.35278 6.00944 7.65145 6.00944 8.01945C6.00944 8.38811 5.71077 8.68611 5.34277 8.68611C4.97477 8.68611 4.67611 8.38811 4.67611 8.01945C4.67611 7.65145 4.97477 7.35278 5.34277 7.35278ZM8.00944 7.35278C8.37744 7.35278 8.67611 7.65145 8.67611 8.01945C8.67611 8.38811 8.37744 8.68611 8.00944 8.68611C7.64144 8.68611 7.34277 8.38811 7.34277 8.01945C7.34277 7.65145 7.64144 7.35278 8.00944 7.35278ZM10.6761 7.35278C11.0441 7.35278 11.3428 7.65145 11.3428 8.01945C11.3428 8.38811 11.0441 8.68611 10.6761 8.68611C10.3081 8.68611 10.0094 8.38811 10.0094 8.01945C10.0094 7.65145 10.3081 7.35278 10.6761 7.35278Z" fill="#23262F"/>
</svg>
