<svg width="16" height="16" viewBox="0 0 16 16" fill="none" xmlns="http://www.w3.org/2000/svg">
<path fill-rule="evenodd" clip-rule="evenodd" d="M7.99967 13.3334C10.9452 13.3334 13.333 10.9456 13.333 8.00004C13.333 5.05452 10.9452 2.66671 7.99967 2.66671C5.05416 2.66671 2.66634 5.05452 2.66634 8.00004C2.66634 10.9456 5.05416 13.3334 7.99967 13.3334ZM7.99967 14.6667C11.6816 14.6667 14.6663 11.6819 14.6663 8.00004C14.6663 4.31814 11.6816 1.33337 7.99967 1.33337C4.31778 1.33337 1.33301 4.31814 1.33301 8.00004C1.33301 11.6819 4.31778 14.6667 7.99967 14.6667Z" fill="#23262F"/>
<path fill-rule="evenodd" clip-rule="evenodd" d="M9.16478 12.1178C9.65725 11.1329 10.0003 9.67888 10.0003 8.00004C10.0003 6.3212 9.65725 4.86722 9.16478 3.88228C8.63243 2.81759 8.1437 2.66671 8.00033 2.66671C7.85696 2.66671 7.36822 2.81759 6.83587 3.88228C6.3434 4.86722 6.00033 6.3212 6.00033 8.00004C6.00033 9.67888 6.3434 11.1329 6.83587 12.1178C7.36822 13.1825 7.85696 13.3334 8.00033 13.3334C8.1437 13.3334 8.63243 13.1825 9.16478 12.1178ZM8.00033 14.6667C9.84127 14.6667 11.3337 11.6819 11.3337 8.00004C11.3337 4.31814 9.84127 1.33337 8.00033 1.33337C6.15938 1.33337 4.66699 4.31814 4.66699 8.00004C4.66699 11.6819 6.15938 14.6667 8.00033 14.6667Z" fill="#23262F"/>
<path fill-rule="evenodd" clip-rule="evenodd" d="M14.6334 8.66671C14.6552 8.44744 14.6663 8.22504 14.6663 8.00004C14.6663 7.77504 14.6552 7.55264 14.6334 7.33337H1.36592C1.34415 7.55264 1.33301 7.77504 1.33301 8.00004C1.33301 8.22504 1.34415 8.44744 1.36592 8.66671H14.6334Z" fill="#23262F"/>
</svg>
