<svg width="375" height="190" viewBox="0 0 375 190" fill="none" xmlns="http://www.w3.org/2000/svg">
<path opacity="0.8" d="M473 52.8727C471.798 46.5798 466.308 41.8756 460.181 38.3851C446.205 30.4233 429.296 25.4733 413.163 21.3886C387.105 14.7912 359.538 11.3053 332.505 8.63242C294.58 4.88254 255.409 5.371 217.477 8.63242C181.684 11.7099 145.895 18.6899 111.869 28.2084C75.654 38.3394 40.1685 52.5025 11.8108 73.9328C-5.28523 86.8525 -21.5113 103.227 -24.5389 122.837C-27.2335 140.292 -17.9823 156.077 -0.363098 165.806C20.2404 177.182 46.526 181.624 70.8737 183.155C109.17 185.564 147.595 182.484 185.515 178.173C254.274 170.356 325.528 158.355 388.084 132.731C409.47 123.971 431.592 111.885 447.19 96.795C457.727 86.6002 466.001 71.1443 458.374 58.0317C450.441 44.3934 428.928 36.9409 412.345 33.2967C368.583 23.6795 285.499 21.3886 233.62 33.2967" stroke="#F6F3F1" stroke-width="12" stroke-linecap="round"/>
</svg>
