<svg width="511" height="190" viewBox="0 0 511 190" fill="none" xmlns="http://www.w3.org/2000/svg">
<path opacity="0.8" d="M504.5 52.8727C503.298 46.5798 497.808 41.8756 491.681 38.3851C477.705 30.4233 460.796 25.4733 444.663 21.3886C418.605 14.7912 391.038 11.3053 364.005 8.63242C326.08 4.88254 286.909 5.371 248.977 8.63242C213.184 11.7099 177.395 18.6899 143.369 28.2084C107.154 38.3394 71.6685 52.5025 43.3108 73.9328C26.2148 86.8525 9.98865 103.227 6.96114 122.837C4.2665 140.292 13.5177 156.077 31.1369 165.806C51.7404 177.182 78.026 181.624 102.374 183.155C140.67 185.564 179.095 182.484 217.015 178.173C285.774 170.356 357.028 158.355 419.584 132.731C440.97 123.971 463.092 111.885 478.69 96.795C489.227 86.6002 497.501 71.1443 489.874 58.0317C481.941 44.3934 460.428 36.9409 443.845 33.2967C400.083 23.6795 316.999 21.3886 265.12 33.2967" stroke="#F6F3F1" stroke-width="12" stroke-linecap="round"/>
</svg>
