<svg width="657" height="311" viewBox="0 0 657 311" fill="none" xmlns="http://www.w3.org/2000/svg">
<path d="M647 86.629C645.463 76.3412 638.44 68.6505 630.603 62.9441C612.727 49.9279 591.098 41.8356 570.461 35.1578C537.13 24.3721 501.869 18.6733 467.291 14.3036C418.78 8.17314 368.675 8.97169 320.156 14.3036C274.373 19.3348 228.595 30.7458 185.072 46.307C138.748 62.8694 93.3581 86.0237 57.0853 121.059C35.2175 142.18 14.4624 168.949 10.5899 201.009C7.1431 229.545 18.9764 255.35 41.5135 271.255C67.8678 289.854 101.49 297.116 132.634 299.619C181.62 303.556 230.769 298.522 279.273 291.474C367.224 278.694 458.366 259.075 538.382 217.184C565.737 202.863 594.035 183.104 613.985 158.434C627.464 141.768 638.047 116.5 628.292 95.0631C618.145 72.7668 590.627 60.5832 569.416 54.6256C513.438 38.9031 407.165 35.1578 340.806 54.6256" stroke="#F6F3F1" stroke-width="20" stroke-linecap="round"/>
</svg>
