<svg width="14" height="13" viewBox="0 0 14 13" fill="none" xmlns="http://www.w3.org/2000/svg">
<path d="M3.99968 0.993774C1.97461 0.993774 0.333008 2.63511 0.333008 4.66045C0.333008 6.78312 1.54201 8.78578 3.54134 10.6191C4.22374 11.2445 4.95848 11.7931 5.68714 12.2858C5.94254 12.4578 6.18141 12.6138 6.39554 12.7438C6.52608 12.8231 6.61214 12.8805 6.66634 12.9105C6.86768 13.0225 7.13168 13.0225 7.33301 12.9105C7.38721 12.8805 7.47328 12.8231 7.60381 12.7438C7.81794 12.6138 8.05681 12.4578 8.31221 12.2858C9.04088 11.7931 9.77561 11.2445 10.458 10.6191C12.4573 8.78578 13.6663 6.78312 13.6663 4.66045C13.6663 2.63511 12.0247 0.993774 9.99968 0.993774C8.84954 0.993774 7.72661 1.62045 7.02048 2.53512C6.33194 1.60445 5.21294 0.993774 3.99968 0.993774Z" fill="#23262F"/>
</svg>
