<svg width="15" height="14" viewBox="0 0 15 14" fill="none" xmlns="http://www.w3.org/2000/svg">
<path d="M7.34245 0.302002C3.66045 0.302002 0.675781 3.28667 0.675781 6.96866C0.675781 10.6507 3.66045 13.6353 7.34245 13.6353C11.0244 13.6353 14.0091 10.6507 14.0091 6.96866C14.0091 3.28667 11.0244 0.302002 7.34245 0.302002ZM7.34245 3.63533C8.44578 3.63533 9.33845 4.53133 9.34245 5.63533C9.34511 6.37466 8.99845 6.998 8.42578 7.57267C8.30578 7.69333 8.19044 7.80933 8.05045 7.92733C7.98445 7.98333 7.79978 8.11866 7.77978 8.13533C7.49845 8.37266 7.07978 8.35467 6.84245 8.07267C6.60511 7.79133 6.64445 7.35199 6.92578 7.11466C6.95645 7.08866 7.11978 6.95334 7.17578 6.906C7.28778 6.812 7.39911 6.72466 7.48844 6.63533C7.83444 6.28733 8.01045 5.954 8.00911 5.63533C8.00778 5.26467 7.70978 4.96867 7.34245 4.96867C7.03778 4.96867 6.77312 5.17933 6.69645 5.46867C6.60245 5.82467 6.23978 6.04199 5.88378 5.94799C5.52845 5.85399 5.31111 5.47066 5.40511 5.11466C5.63511 4.24333 6.42911 3.63533 7.34245 3.63533ZM7.34245 8.96866C7.71045 8.96866 8.00911 9.26733 8.00911 9.63533C8.00911 10.0033 7.71045 10.302 7.34245 10.302C6.97445 10.302 6.67578 10.0033 6.67578 9.63533C6.67578 9.26733 6.97445 8.96866 7.34245 8.96866Z" fill="#23262F"/>
</svg>
