<svg width="167" height="90" viewBox="0 0 167 90" fill="none" xmlns="http://www.w3.org/2000/svg">
<path d="M0.655273 8C0.655273 3.58172 4.237 0 8.65527 0H158.344C162.762 0 166.344 3.58172 166.344 8V82C166.344 86.4183 162.762 90 158.344 90H8.65528C4.237 90 0.655273 86.4183 0.655273 82V8Z" fill="#23262F"/>
<path d="M42.6349 42.4614C42.6349 43.261 42.5184 43.9985 42.2855 44.6739C42.0527 45.3416 41.6761 45.9199 41.156 46.409C40.6436 46.8903 39.976 47.2669 39.1531 47.5386C38.3302 47.8103 37.3287 47.9461 36.1487 47.9461H28.9755V53H24.6553V37H36.1487C37.3287 37 38.3302 37.1359 39.1531 37.4076C39.976 37.6715 40.6436 38.048 41.156 38.5371C41.6761 39.0184 42.0527 39.5929 42.2855 40.2606C42.5184 40.9282 42.6349 41.6618 42.6349 42.4614ZM38.2681 42.5313C38.2681 42.1587 38.2137 41.8404 38.1051 41.5764C38.0041 41.3047 37.8333 41.0835 37.5927 40.9127C37.352 40.7419 37.0376 40.6177 36.6495 40.54C36.2613 40.4546 35.7839 40.4119 35.2171 40.4119H28.9755V44.5342H35.2171C35.7839 44.5342 36.2613 44.5032 36.6495 44.441C37.0376 44.3712 37.352 44.2586 37.5927 44.1033C37.8333 43.9403 38.0041 43.7307 38.1051 43.4745C38.2137 43.2183 38.2681 42.9039 38.2681 42.5313Z" fill="#F6F3F1"/>
<path d="M58.2623 49.9723H49.3423L47.8401 53H43.0192L51.3918 37H56.2128L64.5854 53H59.7644L58.2623 49.9723ZM50.8911 46.8515H56.7368L53.8256 40.9592L50.8911 46.8515Z" fill="#F6F3F1"/>
<path d="M75.2404 40.4818V53H70.9202V40.4818H64.1313V37H82.041V40.4818H75.2404Z" fill="#F6F3F1"/>
<path d="M100.021 53L89.2259 42.0073V53H84.9056V37H89.5985L100.405 48.0393V37H104.702V53H100.021Z" fill="#F6F3F1"/>
<path d="M122.565 49.9723H113.645L112.143 53H107.322L115.695 37H120.516L128.888 53H124.067L122.565 49.9723ZM115.194 46.8515H121.04L118.128 40.9592L115.194 46.8515Z" fill="#F6F3F1"/>
<path d="M139.543 40.4818V53H135.223V40.4818H128.434V37H146.344V40.4818H139.543Z" fill="#F6F3F1"/>
</svg>
