<svg width="102" height="14" viewBox="0 0 102 14" fill="none" xmlns="http://www.w3.org/2000/svg">
<path d="M15.0706 4.93741C15.0706 5.58709 14.973 6.18632 14.7778 6.73508C14.5826 7.27753 14.267 7.74745 13.831 8.14483C13.4015 8.5359 12.8419 8.84182 12.1522 9.06259C11.4624 9.28336 10.623 9.39374 9.63388 9.39374H3.62124V13.5H0V0.5H9.63388C10.623 0.5 11.4624 0.610383 12.1522 0.83115C12.8419 1.04561 13.4015 1.35153 13.831 1.74891C14.267 2.13998 14.5826 2.60674 14.7778 3.1492C14.973 3.69165 15.0706 4.28772 15.0706 4.93741ZM11.4103 4.99418C11.4103 4.69141 11.3648 4.4328 11.2737 4.21834C11.1891 3.99757 11.0459 3.81781 10.8442 3.67904C10.6425 3.54027 10.3789 3.43935 10.0536 3.37627C9.72823 3.30689 9.32804 3.2722 8.85301 3.2722H3.62124V6.62154H8.85301C9.32804 6.62154 9.72823 6.59631 10.0536 6.54585C10.3789 6.48908 10.6425 6.39762 10.8442 6.27147C11.0459 6.13901 11.1891 5.9687 11.2737 5.76055C11.3648 5.5524 11.4103 5.29694 11.4103 4.99418Z" fill="#23262F"/>
<path d="M28.1696 11.04H20.6928L19.4337 13.5H15.3927L22.4107 0.5H26.4517L33.4697 13.5H29.4287L28.1696 11.04ZM21.991 8.50437H26.8909L24.4507 3.71689L21.991 8.50437Z" fill="#23262F"/>
<path d="M42.4008 3.32897V13.5H38.7795V3.32897H33.089V0.5H48.1011V3.32897H42.4008Z" fill="#23262F"/>
<path d="M63.1717 13.5L54.1234 4.56841V13.5H50.5022V0.5H54.4358L63.4938 9.46943V0.5H67.0955V13.5H63.1717Z" fill="#23262F"/>
<path d="M82.0685 11.04H74.5918L73.3326 13.5H69.2917L76.3097 0.5H80.3506L87.3686 13.5H83.3277L82.0685 11.04ZM75.89 8.50437H80.7899L78.3497 3.71689L75.89 8.50437Z" fill="#23262F"/>
<path d="M96.2997 3.32897V13.5H92.6785V3.32897H86.9879V0.5H102V3.32897H96.2997Z" fill="#23262F"/>
</svg>
