<svg width="14" height="14" viewBox="0 0 14 14" fill="none" xmlns="http://www.w3.org/2000/svg">
<path fill-rule="evenodd" clip-rule="evenodd" d="M8.93677 9.87995C8.03365 10.582 6.89882 11 5.66634 11C2.72082 11 0.333008 8.61223 0.333008 5.66671C0.333008 2.72119 2.72082 0.333374 5.66634 0.333374C8.61186 0.333374 10.9997 2.72119 10.9997 5.66671C10.9997 6.89918 10.5816 8.03401 9.87958 8.93714L13.4711 12.5286C13.7314 12.789 13.7314 13.2111 13.4711 13.4714C13.2107 13.7318 12.7886 13.7318 12.5283 13.4714L8.93677 9.87995ZM9.66634 5.66671C9.66634 7.87585 7.87548 9.66671 5.66634 9.66671C3.4572 9.66671 1.66634 7.87585 1.66634 5.66671C1.66634 3.45757 3.4572 1.66671 5.66634 1.66671C7.87548 1.66671 9.66634 3.45757 9.66634 5.66671Z" fill="#23262F" stroke="#23262F" stroke-width="0.3" stroke-linecap="round"/>
</svg>
