<svg width="14" height="14" viewBox="0 0 14 14" fill="none" xmlns="http://www.w3.org/2000/svg">
<path d="M7.01581 0.627686C6.63521 0.627552 6.24654 0.864355 6.01634 1.33569L4.60041 4.25082L1.37294 4.70889C0.33501 4.85329 -0.00125694 5.87156 0.748276 6.60356L3.08034 8.87356L2.53901 12.0596C2.36074 13.0909 3.21614 13.7142 4.14234 13.2256C4.50021 13.0362 6.34028 12.0829 7.01581 11.7262L9.88927 13.2256C10.8165 13.7142 11.6746 13.0916 11.4926 12.0596L10.9304 8.87356L13.2625 6.60356C14.0156 5.87422 13.6967 4.85622 12.6587 4.70889L9.41041 4.25082L8.01528 1.33569C7.78541 0.864155 7.39641 0.627886 7.01581 0.627686Z" fill="#23262F"/>
</svg>
